<svg xmlns="http://www.w3.org/2000/svg" width="31.938" height="31.174" viewBox="0 0 31.938 31.174">
  <path id="announcements" d="M224.056,373.061V387H221.2c-4.011,0-6.18-2.115-6.18-5.975v-1.992c0-3.861,2.169-5.976,6.18-5.976Zm-.41,21.324-2.756-5.648h3.342a16.953,16.953,0,0,1,4.693.56l.928,3.97a2.756,2.756,0,0,1-2.756,3.684C225.324,396.95,224.451,396.022,223.646,394.385Zm2.5-21.324a36.763,36.763,0,0,0,12.443-3.888c0,.1-.014.2-.014.3v21.01c0,.137.014.286.027.423a36.569,36.569,0,0,0-12.456-3.888Zm14.516-4.12a3.152,3.152,0,1,1,6.3,0V391.03a3.152,3.152,0,0,1-6.3,0Z" transform="translate(-215.024 -365.776)" fill="#4e5771"/>
</svg>
