<svg xmlns="http://www.w3.org/2000/svg" width="22.275" height="18.307" viewBox="0 0 22.275 18.307">
  <path id="button_icon" data-name="button icon" d="M215.472,222.471l-7.634,7.634a1.453,1.453,0,0,1-1.024.442,1.361,1.361,0,0,1-1.431-1.373,1.4,1.4,0,0,1,.442-1.036l2.607-2.63,3.072-2.8-2.642.151H195.141a1.455,1.455,0,1,1,0-2.909h13.721l2.63.151-3.061-2.8-2.607-2.63a1.441,1.441,0,0,1-.442-1.036,1.364,1.364,0,0,1,1.431-1.385,1.448,1.448,0,0,1,1.036.477l7.623,7.611a1.49,1.49,0,0,1,0,2.141Z" transform="translate(-193.651 -212.241)" fill="#fff"/>
</svg>
