<svg xmlns="http://www.w3.org/2000/svg" width="28.863" height="29.93" viewBox="0 0 28.863 29.93">
  <path id="citizen_report_selected" data-name="citizen report selected" d="M247.683,223.931l-5.028-6.139a4.87,4.87,0,0,1-1.25-3.662v-6.575a4.87,4.87,0,0,1,1.25-3.662l5.028-6.139a4.543,4.543,0,0,1,3.875-1.876h8.556a4.543,4.543,0,0,1,3.875,1.876l5.028,6.139a4.815,4.815,0,0,1,1.25,3.662v6.575a4.816,4.816,0,0,1-1.25,3.662l-5.028,6.139a4.544,4.544,0,0,1-3.875,1.876h-8.556A4.544,4.544,0,0,1,247.683,223.931Zm9.973-7.159a1.813,1.813,0,0,0-3.625,0,1.778,1.778,0,0,0,1.82,1.8A1.758,1.758,0,0,0,257.656,216.772Zm-.4-4.984.222-7.084a1.59,1.59,0,0,0-1.639-1.726,1.568,1.568,0,0,0-1.625,1.711l.209,7.1c.042.961.542,1.5,1.431,1.5C256.711,213.29,257.211,212.764,257.253,211.788Z" transform="translate(-241.405 -195.878)" fill="#4e5771"/>
</svg>
