<svg xmlns="http://www.w3.org/2000/svg" width="23.995" height="19.133" viewBox="0 0 23.995 19.133">
  <path id="cogs" d="M19.193,7.27l-.307.536a.463.463,0,0,1-.566.2,4.143,4.143,0,0,1-1.2-.7.466.466,0,0,1-.1-.589l.307-.536a3.237,3.237,0,0,1-.6-1.027H16.1a.463.463,0,0,1-.457-.386,4.224,4.224,0,0,1,0-1.391.466.466,0,0,1,.457-.39h.619a3.237,3.237,0,0,1,.6-1.027l-.307-.536a.461.461,0,0,1,.1-.589,4.193,4.193,0,0,1,1.2-.7.463.463,0,0,1,.566.2l.307.536a3.332,3.332,0,0,1,1.189,0l.307-.536a.463.463,0,0,1,.566-.2,4.143,4.143,0,0,1,1.2.7.466.466,0,0,1,.1.589l-.307.536a3.237,3.237,0,0,1,.6,1.027h.619a.463.463,0,0,1,.457.386,4.224,4.224,0,0,1,0,1.391.466.466,0,0,1-.457.39h-.619a3.237,3.237,0,0,1-.6,1.027l.307.536a.461.461,0,0,1-.1.589,4.193,4.193,0,0,1-1.2.7.463.463,0,0,1-.566-.2l-.307-.536A3.332,3.332,0,0,1,19.193,7.27Zm-.394-2.2a1.4,1.4,0,0,0,1.98-1.98A1.4,1.4,0,0,0,18.8,5.065Zm-4.323,5.771,1.264.63a.9.9,0,0,1,.394,1.091,8.852,8.852,0,0,1-1.6,2.467.9.9,0,0,1-1.136.2l-1.091-.63a6.441,6.441,0,0,1-2.059,1.189v1.26a.9.9,0,0,1-.739.885,8.432,8.432,0,0,1-2.846,0,.9.9,0,0,1-.75-.885v-1.26a6.512,6.512,0,0,1-2.059-1.189l-1.091.626a.9.9,0,0,1-1.136-.2A8.839,8.839,0,0,1,.047,12.557a.9.9,0,0,1,.394-1.091l1.249-.63a6.5,6.5,0,0,1,0-2.377L.441,7.825A.894.894,0,0,1,.047,6.737,8.8,8.8,0,0,1,1.63,4.27a.9.9,0,0,1,1.136-.2l1.091.63A6.441,6.441,0,0,1,5.915,3.513V2.249a.893.893,0,0,1,.735-.881,8.551,8.551,0,0,1,2.85,0,.9.9,0,0,1,.75.885v1.26A6.512,6.512,0,0,1,12.308,4.7l1.091-.63a.9.9,0,0,1,1.136.2,8.792,8.792,0,0,1,1.579,2.467.9.9,0,0,1-.375,1.091l-1.264.63A6.516,6.516,0,0,1,14.476,10.836Zm-4.41.791A2.8,2.8,0,0,0,6.1,7.664,2.8,2.8,0,0,0,10.066,11.627Zm9.127,6.851-.307.536a.463.463,0,0,1-.566.2,4.143,4.143,0,0,1-1.2-.7.466.466,0,0,1-.1-.589l.307-.536a3.237,3.237,0,0,1-.6-1.027H16.1a.463.463,0,0,1-.457-.386,4.224,4.224,0,0,1,0-1.391.466.466,0,0,1,.457-.39h.619a3.237,3.237,0,0,1,.6-1.027l-.307-.536a.461.461,0,0,1,.1-.589,4.193,4.193,0,0,1,1.2-.7.463.463,0,0,1,.566.2l.307.536a3.332,3.332,0,0,1,1.189,0l.307-.536a.463.463,0,0,1,.566-.2,4.143,4.143,0,0,1,1.2.7.466.466,0,0,1,.1.589l-.307.536a3.237,3.237,0,0,1,.6,1.027h.619a.463.463,0,0,1,.457.386,4.224,4.224,0,0,1,0,1.391.466.466,0,0,1-.457.39h-.619a3.237,3.237,0,0,1-.6,1.027l.307.536a.461.461,0,0,1-.1.589,4.193,4.193,0,0,1-1.2.7.463.463,0,0,1-.566-.2l-.307-.536A3.332,3.332,0,0,1,19.193,18.477ZM18.8,16.269a1.4,1.4,0,0,0,1.98-1.98A1.4,1.4,0,0,0,18.8,16.269Z" transform="translate(0.009 -0.112)" fill="#262626"/>
</svg>
