<svg xmlns="http://www.w3.org/2000/svg" width="32.868" height="30.78" viewBox="0 0 32.868 30.78">
  <path id="directories" d="M353.63,339.847a2.905,2.905,0,0,1,1.624-2.769l6.79-3.851a9.63,9.63,0,0,1,1.346-.619v26.65l-5.955,3.232a3.15,3.15,0,0,1-1.516.433,2.127,2.127,0,0,1-2.289-2.289Zm12.126-7.347a6.1,6.1,0,0,1,1.485.681l6.93,4.145V363.28a4.176,4.176,0,0,1-1.284-.526l-7.131-3.975Zm10.781,4.1,5.862-3.248a3.581,3.581,0,0,1,1.671-.48,2.158,2.158,0,0,1,2.428,2.3v20.618a2.934,2.934,0,0,1-1.686,2.8l-7.687,4.331a2.75,2.75,0,0,1-.587.263Z" transform="translate(-353.63 -332.5)" fill="#4e5771"/>
</svg>
