<svg xmlns="http://www.w3.org/2000/svg" width="36" height="31.417" viewBox="0 0 36 31.417">
  <g id="home_selected" data-name="home selected" transform="translate(-17.55 -97.896)">
    <path id="Path_1" data-name="Path 1" d="M43.458,116.924,31.187,127.207V137.94a3.271,3.271,0,0,0,3.6,3.452h5.73V128.875a1.077,1.077,0,0,1,1.146-1.131h5.424a1.059,1.059,0,0,1,1.131,1.131v12.518h5.744a3.271,3.271,0,0,0,3.6-3.452V127.222l-12.271-10.3A1.358,1.358,0,0,0,43.458,116.924Z" transform="translate(-8.822 -12.08)" fill="#fff"/>
    <path id="Path_2" data-name="Path 2" d="M52.912,111.443l-4.09-3.437v-6.15a1.016,1.016,0,0,0-1.088-1.073H45.471a1.028,1.028,0,0,0-1.1,1.073v2.422l-6.556-5.512a3.339,3.339,0,0,0-4.5,0L18.2,111.457a1.69,1.69,0,0,0-.653,1.305,1.549,1.549,0,0,0,1.668,1.552,2.1,2.1,0,0,0,1.32-.581l14.33-12.01a1,1,0,0,1,1.393,0l14.3,12.01a2.1,2.1,0,0,0,1.334.581,1.522,1.522,0,0,0,1.654-1.523A1.718,1.718,0,0,0,52.912,111.443Z" fill="#fff"/>
  </g>
</svg>
