<svg xmlns="http://www.w3.org/2000/svg" width="22.858" height="17.775" viewBox="0 0 22.858 17.775">
  <path id="home" d="M11.111,36.661,3.795,42.687v6.5a.635.635,0,0,0,.635.635l4.447-.012a.635.635,0,0,0,.632-.635v-3.8a.635.635,0,0,1,.635-.635h2.54a.635.635,0,0,1,.635.635v3.8a.635.635,0,0,0,.635.637l4.445.012a.635.635,0,0,0,.635-.635V42.683l-7.315-6.021a.484.484,0,0,0-.607,0Zm11.557,4.1L19.35,38.023v-5.5a.476.476,0,0,0-.476-.476H16.652a.476.476,0,0,0-.476.476v2.881l-3.553-2.923a1.9,1.9,0,0,0-2.421,0L.158,40.757a.476.476,0,0,0-.063.671l1.012,1.23a.476.476,0,0,0,.671.065l9.334-7.688a.484.484,0,0,1,.607,0l9.334,7.688a.476.476,0,0,0,.671-.063l1.012-1.23a.476.476,0,0,0-.067-.672Z" transform="translate(0.015 -32.05)" fill="#262626"/>
</svg>
