<svg xmlns="http://www.w3.org/2000/svg" width="37.436" height="24.762" viewBox="0 0 37.436 24.762">
  <path id="household" d="M348.907,106.853c0-3.656,4.011-8.118,10.069-8.118a10.719,10.719,0,0,1,5.853,1.651c-3.165,2.5-4.666,6.617-3.193,8.718H351.513C349.6,109.1,348.907,108.272,348.907,106.853ZM354.16,91.4a4.835,4.835,0,1,1,9.646-.027,4.844,4.844,0,1,1-9.646.027Zm9.072,15.689c0-3.506,4.475-8.308,11.556-8.308s11.555,4.8,11.555,8.308c0,1.283-.791,2.019-3.1,2.019H366.329C364.01,109.1,363.232,108.368,363.232,107.085Zm6.03-16.781a5.547,5.547,0,1,1,11.065-.027,5.557,5.557,0,1,1-11.065.027Z" transform="translate(-348.907 -84.342)" fill="#4e5771"/>
</svg>
