<svg xmlns="http://www.w3.org/2000/svg" width="20.681" height="18.383" viewBox="0 0 20.681 18.383">
  <path id="house-user" d="M20.491,8.483,18.383,6.622v-4.9a.574.574,0,0,0-.574-.574h-2.3a.574.574,0,0,0-.574.574V3.579L11.3.37A1.652,1.652,0,0,0,10.341,0a1.647,1.647,0,0,0-.96.37L.189,8.484A.656.656,0,0,0,0,8.912.669.669,0,0,0,.147,9.3l.769.854a.759.759,0,0,0,.431.19.778.778,0,0,0,.384-.148l.571-.5v7.544A1.149,1.149,0,0,0,3.45,18.383H17.234a1.149,1.149,0,0,0,1.149-1.149V9.69l.571.5a.788.788,0,0,0,.385.148.75.75,0,0,0,.426-.191l.769-.855a.777.777,0,0,0,.147-.384A.754.754,0,0,0,20.491,8.483ZM10.341,6.319a2.3,2.3,0,1,1-2.3,2.3A2.3,2.3,0,0,1,10.341,6.319Zm4.021,9.766H6.319a.574.574,0,0,1-.574-.574,3.447,3.447,0,0,1,3.447-3.447h2.3a3.447,3.447,0,0,1,3.447,3.447A.574.574,0,0,1,14.362,16.086Z" fill="#262626"/>
</svg>
