<svg xmlns="http://www.w3.org/2000/svg" width="18.299" height="18.299" viewBox="0 0 18.299 18.299">
  <path id="info-circle" d="M17.15,8a9.15,9.15,0,1,0,9.15,9.15A9.151,9.151,0,0,0,17.15,8Zm0,4.058a1.55,1.55,0,1,1-1.55,1.55A1.55,1.55,0,0,1,17.15,12.058Zm2.066,9.371a.443.443,0,0,1-.443.443H15.526a.443.443,0,0,1-.443-.443v-.885a.443.443,0,0,1,.443-.443h.443V17.74h-.443a.443.443,0,0,1-.443-.443v-.885a.443.443,0,0,1,.443-.443h2.361a.443.443,0,0,1,.443.443V20.1h.443a.443.443,0,0,1,.443.443Z" transform="translate(-8 -8)" fill="#262626"/>
</svg>
