<svg xmlns="http://www.w3.org/2000/svg" width="21.499" height="14.333" viewBox="0 0 21.499 14.333">
  <path id="newspaper" d="M20.6,64H3.285a.9.9,0,0,0-.9.9v.3H.9a.9.9,0,0,0-.9.9V76.242a2.09,2.09,0,0,0,2.09,2.09H19.707A1.792,1.792,0,0,0,21.5,76.541V64.9A.9.9,0,0,0,20.6,64ZM2.09,76.541a.3.3,0,0,1-.3-.3V66.986h.6v9.256A.3.3,0,0,1,2.09,76.541Zm8.809-.6H5.225a.448.448,0,0,1-.448-.448v-.3a.448.448,0,0,1,.448-.448H10.9a.448.448,0,0,1,.448.448v.3A.448.448,0,0,1,10.9,75.944Zm7.763,0H12.989a.448.448,0,0,1-.448-.448v-.3a.448.448,0,0,1,.448-.448h5.673a.448.448,0,0,1,.448.448v.3A.448.448,0,0,1,18.662,75.944ZM10.9,72.361H5.225a.448.448,0,0,1-.448-.448v-.3a.448.448,0,0,1,.448-.448H10.9a.448.448,0,0,1,.448.448v.3A.448.448,0,0,1,10.9,72.361Zm7.763,0H12.989a.448.448,0,0,1-.448-.448v-.3a.448.448,0,0,1,.448-.448h5.673a.448.448,0,0,1,.448.448v.3A.448.448,0,0,1,18.662,72.361Zm0-3.583H5.225a.448.448,0,0,1-.448-.448V66.837a.448.448,0,0,1,.448-.448H18.662a.448.448,0,0,1,.448.448V68.33A.448.448,0,0,1,18.662,68.778Z" transform="translate(0 -64)" fill="#262626"/>
</svg>
