<svg xmlns="http://www.w3.org/2000/svg" width="29.944" height="29.93" viewBox="0 0 29.944 29.93">
  <path id="projects_services" data-name="projects/services" d="M192.5,43.378l-.7-2.881a9.566,9.566,0,0,1-1.211-.487l-2.52,1.545a1.756,1.756,0,0,1-2.255-.237l-1.782-1.768a1.776,1.776,0,0,1-.209-2.3l1.531-2.492a9.361,9.361,0,0,1-.473-1.169l-2.909-.7a1.734,1.734,0,0,1-1.406-1.782V28.622a1.729,1.729,0,0,1,1.406-1.768l2.882-.7a9.944,9.944,0,0,1,.473-1.183l-1.545-2.548a1.74,1.74,0,0,1,.237-2.269l1.8-1.768a1.792,1.792,0,0,1,2.2-.279l2.561,1.573a12.526,12.526,0,0,1,1.225-.5l.7-2.9a1.735,1.735,0,0,1,1.782-1.42h2.534a1.745,1.745,0,0,1,1.782,1.42l.682,2.923a9.96,9.96,0,0,1,1.211.487l2.589-1.587a1.788,1.788,0,0,1,2.172.265l1.81,1.782a1.724,1.724,0,0,1,.237,2.269l-1.545,2.548a9.9,9.9,0,0,1,.473,1.183l2.882.7a1.729,1.729,0,0,1,1.406,1.768v2.492a1.734,1.734,0,0,1-1.406,1.782l-2.909.7a12,12,0,0,1-.459,1.169l1.531,2.492a1.794,1.794,0,0,1-.223,2.3l-1.782,1.768a1.756,1.756,0,0,1-2.255.237l-2.52-1.545a8.783,8.783,0,0,1-1.211.487l-.682,2.881a1.745,1.745,0,0,1-1.782,1.42h-2.534A1.735,1.735,0,0,1,192.5,43.378Zm7.879-13.559a4.837,4.837,0,1,0-4.83,4.858A4.839,4.839,0,0,0,200.379,29.819Z" transform="translate(-180.57 -14.868)" fill="#4e5771"/>
</svg>
