<svg xmlns="http://www.w3.org/2000/svg" width="24.365" height="24.365" viewBox="0 0 24.365 24.365">
  <path id="qr_code" data-name="qr code" d="M195.352,240V234.88c0-2.067.982-3.049,3.01-3.049h5.194c2.041,0,3.01.982,3.01,3.049V240c0,2.08-.969,3.062-3.01,3.062h-5.194C196.334,243.057,195.352,242.075,195.352,240Zm0,13.151v-5.116c0-2.067.982-3.049,3.01-3.049h5.194c2.041,0,3.01.982,3.01,3.049v5.116c0,2.08-.969,3.049-3.01,3.049h-5.194C196.334,256.2,195.352,255.227,195.352,253.147Zm8.307-12.3c.478,0,.71-.232.71-.736v-5.349a.629.629,0,0,0-.71-.723h-5.4c-.478,0-.7.233-.7.723v5.349c0,.5.22.736.7.736Zm0,13.151a.629.629,0,0,0,.71-.723v-5.361a.629.629,0,0,0-.71-.724h-5.4c-.478,0-.7.232-.7.724v5.361c0,.491.22.723.7.723Zm-4.16-15.413v-2.3c0-.232.065-.31.271-.31h2.364c.207,0,.3.077.3.31v2.3c0,.233-.09.323-.3.323H199.77C199.564,238.911,199.5,238.82,199.5,238.587Zm0,13.152v-2.3c0-.232.065-.31.271-.31h2.364c.207,0,.3.078.3.31v2.3c0,.232-.09.323-.3.323H199.77C199.564,252.062,199.5,251.971,199.5,251.739Zm9-11.743V234.88c0-2.067.982-3.049,3.01-3.049h5.194c2.028,0,3.01.982,3.01,3.049V240c0,2.08-.982,3.062-3.01,3.062h-5.194C209.485,243.057,208.5,242.075,208.5,240Zm.646,8.191v-2.3c0-.232.078-.31.271-.31H211.8c.207,0,.3.078.3.31v2.3c0,.245-.091.323-.3.323h-2.377C209.227,248.509,209.149,248.432,209.149,248.186Zm0,6.951v-2.3c0-.22.078-.31.271-.31H211.8c.207,0,.3.09.3.31v2.3c0,.245-.091.323-.3.323h-2.377C209.227,255.46,209.149,255.382,209.149,255.137Zm7.661-14.289c.478,0,.7-.232.7-.736v-5.349c0-.491-.22-.723-.7-.723h-5.387c-.491,0-.711.233-.711.723v5.349c0,.5.22.736.711.736Zm-4.147,10.813v-2.3c0-.22.078-.31.271-.31h2.377c.207,0,.285.091.285.31v2.3c0,.245-.078.323-.285.323h-2.377C212.741,251.984,212.663,251.907,212.663,251.662Zm.039-13.074v-2.3c0-.232.064-.31.271-.31h2.364c.207,0,.3.077.3.31v2.3c0,.233-.091.323-.3.323h-2.364C212.767,238.911,212.7,238.82,212.7,238.587Zm3.41,9.6v-2.3c0-.232.064-.31.271-.31h2.377c.207,0,.284.078.284.31v2.3c0,.245-.078.323-.284.323h-2.377C216.177,248.509,216.112,248.432,216.112,248.186Zm0,6.951v-2.3c0-.22.064-.31.271-.31h2.377c.207,0,.284.09.284.31v2.3c0,.245-.078.323-.284.323h-2.377C216.177,255.46,216.112,255.382,216.112,255.137Z" transform="translate(-195.352 -231.831)" fill="#fff"/>
</svg>
