<svg xmlns="http://www.w3.org/2000/svg" width="34.931" height="34.931" viewBox="0 0 34.931 34.931">
  <path id="qr" d="M191.868,203.491v-7.335c0-2.963,1.408-4.371,4.315-4.371h7.446c2.926,0,4.315,1.408,4.315,4.371v7.335c0,2.982-1.389,4.389-4.315,4.389h-7.446C193.276,207.88,191.868,206.472,191.868,203.491Zm0,18.854V215.01c0-2.963,1.408-4.371,4.315-4.371h7.446c2.926,0,4.315,1.408,4.315,4.371v7.335c0,2.982-1.389,4.371-4.315,4.371h-7.446C193.276,226.716,191.868,225.327,191.868,222.345Zm11.909-17.632c.685,0,1.019-.334,1.019-1.056v-7.668a.9.9,0,0,0-1.019-1.037h-7.742c-.685,0-1,.334-1,1.037v7.668c0,.722.315,1.056,1,1.056Zm0,18.854a.9.9,0,0,0,1.019-1.037v-7.686a.9.9,0,0,0-1.019-1.038h-7.742c-.685,0-1,.334-1,1.038v7.686c0,.7.315,1.037,1,1.037Zm-5.963-22.1v-3.3c0-.334.092-.445.389-.445h3.389c.3,0,.426.111.426.445v3.3c0,.334-.129.463-.426.463H198.2C197.906,201.935,197.813,201.805,197.813,201.471Zm0,18.854v-3.3c0-.333.092-.444.389-.444h3.389c.3,0,.426.111.426.444v3.3c0,.333-.129.463-.426.463H198.2C197.906,220.789,197.813,220.659,197.813,220.326Zm12.909-16.835v-7.335c0-2.963,1.408-4.371,4.315-4.371h7.446c2.908,0,4.315,1.408,4.315,4.371v7.335c0,2.982-1.408,4.389-4.315,4.389h-7.446C212.13,207.88,210.722,206.472,210.722,203.491Zm.926,11.742v-3.3c0-.334.111-.445.389-.445h3.408c.3,0,.426.111.426.445v3.3c0,.352-.13.463-.426.463h-3.408C211.759,215.7,211.649,215.585,211.649,215.233Zm0,9.965v-3.3c0-.315.111-.444.389-.444h3.408c.3,0,.426.129.426.444v3.3c0,.352-.13.463-.426.463h-3.408C211.759,225.66,211.649,225.549,211.649,225.2Zm10.983-20.484c.685,0,1-.334,1-1.056v-7.668c0-.7-.315-1.037-1-1.037h-7.724c-.7,0-1.019.334-1.019,1.037v7.668c0,.722.315,1.056,1.019,1.056Zm-5.945,15.5v-3.3c0-.315.111-.444.389-.444h3.408c.3,0,.408.129.408.444v3.3c0,.352-.111.463-.408.463h-3.408C216.8,220.678,216.686,220.567,216.686,220.215Zm.055-18.743v-3.3c0-.334.092-.445.389-.445h3.389c.3,0,.426.111.426.445v3.3c0,.334-.13.463-.426.463H217.13C216.834,201.935,216.742,201.805,216.742,201.471Zm4.889,13.761v-3.3c0-.334.092-.445.389-.445h3.408c.3,0,.407.111.407.445v3.3c0,.352-.111.463-.407.463H222.02C221.724,215.7,221.631,215.585,221.631,215.233Zm0,9.965v-3.3c0-.315.092-.444.389-.444h3.408c.3,0,.407.129.407.444v3.3c0,.352-.111.463-.407.463H222.02C221.724,225.66,221.631,225.549,221.631,225.2Z" transform="translate(-191.868 -191.785)" fill="#4e5771"/>
</svg>
