<svg xmlns="http://www.w3.org/2000/svg" width="28.396" height="28.473" viewBox="0 0 28.396 28.473">
  <path id="system_accounts_selected" data-name="system accounts selected" d="M116.2,147.764c0-2.887,1.512-4.415,4.38-4.415h19.635c2.855,0,4.38,1.528,4.38,4.415v19.63c0,2.886-1.525,4.428-4.38,4.428H120.581c-2.868,0-4.38-1.541-4.38-4.428Zm6.844,1.868a1.278,1.278,0,1,0-2.555,0,1.278,1.278,0,1,0,2.555,0Zm0,4a1.278,1.278,0,1,0-1.277,1.267A1.287,1.287,0,0,0,123.045,153.628Zm0,4.18a1.278,1.278,0,1,0-1.277,1.28A1.278,1.278,0,0,0,123.045,157.807Zm16.35-7.236a.934.934,0,0,0,0-1.868H125.613a.934.934,0,0,0,0,1.868Zm0,3.971a.914.914,0,0,0,0-1.829H125.613a.914.914,0,1,0,0,1.829Zm0,4.193a.927.927,0,0,0,.912-.927.908.908,0,0,0-.912-.914H125.613a.911.911,0,0,0-.925.914.93.93,0,0,0,.925.927Z" transform="translate(-116.201 -143.349)" fill="#fff"/>
</svg>
